<svg width="110" height="110" viewBox="0 0 110 110" fill="none" xmlns="http://www.w3.org/2000/svg">
<path d="M41.25 87.0834C18.3333 93.9584 18.3333 75.625 9.16663 73.3334M73.3333 100.833V83.0959C73.5052 80.9104 73.21 78.7133 72.4671 76.6507C71.7243 74.5882 70.5509 72.7074 69.025 71.1334C83.4166 69.5292 98.5416 64.075 98.5416 39.05C98.5405 32.6509 96.079 26.4972 91.6666 21.8625C93.756 16.264 93.6082 10.0758 91.2541 4.58337C91.2541 4.58337 85.8458 2.97921 73.3333 11.3667C62.8283 8.51964 51.7549 8.51964 41.25 11.3667C28.7375 2.97921 23.3291 4.58337 23.3291 4.58337C20.975 10.0758 20.8273 16.264 22.9166 21.8625C18.4714 26.5316 16.0074 32.7409 16.0416 39.1875C16.0416 64.0292 31.1666 69.4834 45.5583 71.2709C44.0504 72.8291 42.8874 74.6873 42.1451 76.7247C41.4028 78.762 41.0978 80.9328 41.25 83.0959V100.833" stroke="#EDE8F4" stroke-width="4" stroke-linecap="round" stroke-linejoin="round"/>
</svg>
