<svg width="110" height="110" viewBox="0 0 110 110" fill="none" xmlns="http://www.w3.org/2000/svg">
<path d="M80.2083 29.7916H80.2541M32.0833 9.16663H77.9166C90.5732 9.16663 100.833 19.4268 100.833 32.0833V77.9166C100.833 90.5732 90.5732 100.833 77.9166 100.833H32.0833C19.4268 100.833 9.16663 90.5732 9.16663 77.9166V32.0833C9.16663 19.4268 19.4268 9.16663 32.0833 9.16663ZM73.3333 52.1125C73.8989 55.9269 73.2474 59.8226 71.4714 63.2454C69.6953 66.6683 66.8852 69.4439 63.4407 71.1776C59.9963 72.9113 56.0928 73.5148 52.2856 72.9022C48.4785 72.2895 44.9614 70.492 42.2346 67.7653C39.5079 65.0386 37.7104 61.5215 37.0978 57.7143C36.4851 53.9071 37.0886 50.0036 38.8223 46.5592C40.556 43.1147 43.3316 40.3046 46.7545 38.5286C50.1773 36.7525 54.073 36.101 57.8875 36.6666C61.7784 37.2436 65.3805 39.0567 68.1619 41.838C70.9433 44.6194 72.7563 48.2216 73.3333 52.1125Z" stroke="#EDE8F4" stroke-width="4" stroke-linecap="round" stroke-linejoin="round"/>
</svg>
