<svg width="110" height="110" viewBox="0 0 110 110" fill="none" xmlns="http://www.w3.org/2000/svg">
<path d="M73.3333 36.6666C80.6267 36.6666 87.6215 39.5639 92.7787 44.7212C97.936 49.8784 100.833 56.8732 100.833 64.1666V96.25H82.5V64.1666C82.5 61.7355 81.5342 59.4039 79.8151 57.6848C78.096 55.9657 75.7644 55 73.3333 55C70.9021 55 68.5706 55.9657 66.8515 57.6848C65.1324 59.4039 64.1666 61.7355 64.1666 64.1666V96.25H45.8333V64.1666C45.8333 56.8732 48.7306 49.8784 53.8879 44.7212C59.0451 39.5639 66.0398 36.6666 73.3333 36.6666Z" stroke="#EDE8F4" stroke-width="4" stroke-linecap="round" stroke-linejoin="round"/>
<path d="M27.5 41.25H9.16663V96.25H27.5V41.25Z" stroke="#EDE8F4" stroke-width="4" stroke-linecap="round" stroke-linejoin="round"/>
<path d="M18.3333 27.5C23.3959 27.5 27.5 23.3959 27.5 18.3333C27.5 13.2707 23.3959 9.16663 18.3333 9.16663C13.2707 9.16663 9.16663 13.2707 9.16663 18.3333C9.16663 23.3959 13.2707 27.5 18.3333 27.5Z" stroke="#EDE8F4" stroke-width="4" stroke-linecap="round" stroke-linejoin="round"/>
</svg>
