<svg width="24" height="24" viewBox="0 0 24 24" fill="none" xmlns="http://www.w3.org/2000/svg">
<path d="M18.0099 8.99L15.0099 5.99M3.49994 20.5C4.32994 21.33 5.66994 21.33 6.49994 20.5L19.4999 7.5C20.3299 6.67 20.3299 5.33 19.4999 4.5C18.6699 3.67 17.3299 3.67 16.4999 4.5L3.49994 17.5C2.66994 18.33 2.66994 19.67 3.49994 20.5ZM8.49994 2.44L9.99994 2L9.55994 3.5L9.99994 5L8.49994 4.56L6.99994 5L7.43994 3.5L6.99994 2L8.49994 2.44ZM4.49994 8.44L5.99994 8L5.55994 9.5L5.99994 11L4.49994 10.56L2.99994 11L3.43994 9.5L2.99994 8L4.49994 8.44ZM19.4999 13.44L20.9999 13L20.5599 14.5L20.9999 16L19.4999 15.56L17.9999 16L18.4399 14.5L17.9999 13L19.4999 13.44Z" stroke="#292D32" stroke-width="1.5" stroke-linecap="round" stroke-linejoin="round"/>
</svg>
